<svg xmlns="http://www.w3.org/2000/svg" version="1.1" xmlns:xlink="http://www.w3.org/1999/xlink" xmlns:svgjs="http://svgjs.dev/svgjs" width="2000" height="454" viewBox="0 0 2000 454"><g transform="matrix(1,0,0,1,-1.2121212121212466,-0.07975947249457249)"><svg viewBox="0 0 396 90" data-background-color="#ffffff" preserveAspectRatio="xMidYMid meet" height="454" width="2000" xmlns="http://www.w3.org/2000/svg" xmlns:xlink="http://www.w3.org/1999/xlink"><g id="tight-bounds" transform="matrix(1,0,0,1,0.2400000000000091,0.015811349172935252)"><svg viewBox="0 0 395.52 89.96837730165412" height="89.96837730165412" width="395.52"><g><svg viewBox="0 0 395.52 89.96837730165412" height="89.96837730165412" width="395.52"><g transform="matrix(1,0,0,1,0,55.60406652471177)"><svg viewBox="0 0 395.52 34.36431077694235" height="34.36431077694235" width="395.52"><g id="textblocktransform"><svg viewBox="0 0 395.52 34.36431077694235" height="34.36431077694235" width="395.52" id="textblock"><g><svg viewBox="0 0 395.52 34.36431077694235" height="34.36431077694235" width="395.52"><g transform="matrix(1,0,0,1,0,0)"><svg width="395.52" viewBox="3 -35.900001525878906 418.9200134277344 36.400001525878906" height="34.36431077694235" data-palette-color="#ff851b"><path d="M15 0L4 0 4-27.35 3-32.4 4-35.4 22-35.4Q26.05-35.4 28.95-34.1 31.85-32.8 33.4-29.93 34.95-27.05 34.95-22.35L34.95-22.35Q34.95-15.3 31.18-12.23 27.4-9.15 20.5-9.15L20.5-9.15 15-9.15 15-8.05 15.5-3.05 15 0ZM14.5-25.9L15-18.5 17.9-18.5Q19.65-18.5 20.93-18.65 22.2-18.8 22.9-19.58 23.6-20.35 23.6-22.1L23.6-22.1Q23.6-23.95 22.85-24.75 22.1-25.55 20.78-25.73 19.45-25.9 17.7-25.9L17.7-25.9 14.5-25.9ZM65.4 0L39.45 0 38.45-3 39.45-8 39.45-35.4 50.45-35.4 50.45-16.35 49.95-9.5 50.95-9.5 59.9-10 63.45-10.5 67.85-3.2 65.4 0ZM79.84 0L68.34 0 70.75-8.45 70.75-14.8 74.44-16.3 81.44-35.35 96.5-35.35 105.05-12.95 108.9-5.85 108.9 0 98.05 0 95.55-7.45 82-7.45 79.84 0ZM88.44-26.15L85.3-16.2 92.8-16.2 89.5-26.15 88.44-26.15ZM128.39 0L117.39 0 117.39-25.85 107.39-25.35 107.39-35.4 138.64-35.4 138.64-25.35 128.39-25.85 128.39-8 128.94-3 128.39 0ZM154.19 0L143.14 0 143.14-27.4 142.64-32.4 143.14-35.4 154.19-35.4 154.19 0ZM172.79 0L161.19 0 161.19-27.35 160.19-32.35 161.19-35.35 171.24-35.35 181.34-22.75 183.74-18.6 184.24-18.6 184.24-35.35 195.79-35.35 195.79-32.35 195.29-27.35 195.29 0 185.34 0 172.79-17.1 172.29-17.1 172.29-14.1 172.79 0ZM217.74 0.5L217.74 0.5Q208.99 0.5 205.14-3.03 201.29-6.55 201.29-14.35L201.29-14.35 201.29-27.35 201.34-32.4 201.29-35.4 212.49-35.4 212.49-16.85Q212.49-14.55 212.84-12.78 213.19-11 214.34-10 215.49-9 217.84-9L217.84-9Q220.24-9 221.39-9.9 222.54-10.8 222.89-12.55 223.24-14.3 223.24-16.85L223.24-16.85 223.24-35.4 234.19-35.4 234.19-14.35Q234.19-9.25 232.54-5.98 230.89-2.7 227.29-1.1 223.69 0.5 217.74 0.5ZM252.38 0L240.68 0 240.68-27.35 239.68-32.35 240.73-35.35 252.38-35.35 262.18-17.85 263.18-17.85 271.28-35.35 283.23-35.35 283.73-32.35 283.23-27.55 283.23 0 272.18 0 272.33-4.25 272.33-18.2 271.78-18.2 269.88-12.95 266.28-5 258.28-5 252.38-18.2 251.88-18.2 251.88-14.15 252.38 0ZM320.43 0.5L320.43 0.5Q316.08 0.5 312.43-0.28 308.78-1.05 306.08-3.05 303.38-5.05 301.9-8.6 300.43-12.15 300.43-17.7L300.43-17.7Q300.43-23.2 301.98-26.75 303.53-30.3 306.2-32.3 308.88-34.3 312.28-35.1 315.68-35.9 319.38-35.9L319.38-35.9Q321.83-35.9 323.88-35.65 325.93-35.4 327.58-35L327.58-35 334.38-31.05 330.88-22.25 319.83-25.6Q317.68-25.6 315.88-24.93 314.08-24.25 313-22.53 311.93-20.8 311.93-17.65L311.93-17.65Q311.93-12.85 314-10.93 316.08-9 319.88-9L319.88-9Q321.33-9 322.28-9.18 323.23-9.35 323.88-9.6L323.88-9.6 323.88-12.35 319.53-12.35 319.53-20.25 335.43-20.25 335.98-17.25 334.88-12.1 334.88-1.6Q334.33-1.4 332.4-0.9 330.48-0.4 327.43 0.05 324.38 0.5 320.43 0.5ZM361.68 0L350.53 0 350.53-14.5 338.13-32.4 338.13-35.4 350.68-35.4 355.68-25.1 356.68-25.1 361.63-35.4 374.13-35.4 374.13-32.4 361.38-14.2 361.68-9.15 361.68 0ZM390.57 0L378.87 0 378.87-27.35 377.87-32.35 378.92-35.35 390.57-35.35 400.37-17.85 401.37-17.85 409.47-35.35 421.42-35.35 421.92-32.35 421.42-27.55 421.42 0 410.37 0 410.52-4.25 410.52-18.2 409.97-18.2 408.07-12.95 404.47-5 396.47-5 390.57-18.2 390.07-18.2 390.07-14.15 390.57 0Z" opacity="1" transform="matrix(1,0,0,1,0,0)" fill="#ff851b" class="wordmark-text-0" data-fill-palette-color="primary" id="text-0"></path></svg></g></svg></g></svg></g></svg></g><g transform="matrix(1,0,0,1,145.66119599700951,0)"><svg viewBox="0 0 104.19760800598097 47.49147749373433" height="47.49147749373433" width="104.19760800598097"><g><svg xmlns="http://www.w3.org/2000/svg" xmlns:xlink="http://www.w3.org/1999/xlink" version="1.1" x="8" y="0" viewBox="5 25.768999099731445 90 48.462005615234375" enable-background="new 0 0 100 100" xml:space="preserve" height="47.49147749373433" width="88.19760800598097" class="icon-icon-0" data-fill-palette-color="accent" id="icon-0"><g fill="#ff851b" data-fill-palette-color="accent"><rect x="5" y="43.077" fill="#ff851b" width="3.462" height="13.846" data-fill-palette-color="accent"></rect><rect x="11.923" y="32.692" fill="#ff851b" width="3.462" height="34.615" data-fill-palette-color="accent"></rect><rect x="18.846" y="25.769" fill="#ff851b" width="6.924" height="48.462" data-fill-palette-color="accent"></rect><rect x="29.23" y="46.539" fill="#ff851b" width="41.539" height="6.923" data-fill-palette-color="accent"></rect><rect x="91.538" y="43.077" fill="#ff851b" width="3.462" height="13.846" data-fill-palette-color="accent"></rect><rect x="84.615" y="32.692" fill="#ff851b" width="3.462" height="34.615" data-fill-palette-color="accent"></rect><rect x="74.23" y="25.769" fill="#ff851b" width="6.924" height="48.462" data-fill-palette-color="accent"></rect></g></svg></g></svg></g><g><rect width="145.66119599700951" height="3.0990090098333827" y="43.39246848390094" x="249.8588040029905" fill="#ff851b" data-fill-palette-color="accent"></rect><rect width="145.66119599700951" height="3.0990090098333827" y="43.39246848390094" x="0" fill="#ff851b" data-fill-palette-color="accent"></rect><rect width="145.66119599700951" height="3.0990090098333827" y="37.19445046423418" x="249.8588040029905" fill="#ff851b" data-fill-palette-color="accent"></rect><rect width="145.66119599700951" height="3.0990090098333827" y="37.19445046423418" x="0" fill="#ff851b" data-fill-palette-color="accent"></rect></g></svg></g><defs></defs></svg><rect width="395.52" height="89.96837730165412" fill="none" stroke="none" visibility="hidden"></rect></g></svg></g></svg>